<?xml version="1.0" encoding="UTF-8"?>
<svg id="_Слой_1" data-name="Слой 1" xmlns="http://www.w3.org/2000/svg" viewBox="0 0 150 150">
  <defs>
    <style>
      .cls-1 {
        fill: none;
        stroke: #bcd979;
        stroke-miterlimit: 10;
        stroke-width: 3px;
      }
    </style>
  </defs>
  <path id="Man" class="cls-1" d="M19.42,103.89c-1.07-.21-1.85-.07-2.42,.14-3.64,1.4-4.68,8.54-2.77,13.19,.92,2.22,2.22,3.18,2.51,3.38,1.6,1.12,3.28,1.19,3.81,1.2,4.15,.11,7.87-3.54,9.35-7.12,.35-.85,1.1-2.72,.78-5.05-.17-1.23-.63-2.52-2.96-5.59-2.99-3.95-8.39-9.98-9.16-11.51-.08-.16-.37-.79-.85-1.71-.22-.42-.27-.5-.35-.7-.06-.16-.43-1.11-.22-1.85,.16-.55,.57-.76,1.48-1.41,1.38-.98,2.45-1.72,3.08-2.87,.25-.46,.77-1.39,.42-2.4-.35-1.01-1.34-1.39-1.42-1.42-.12-.04-1.19-.42-2.09,.22-.55,.4-.88,1.06-.9,1.62-.05,1.66,2.32,3.69,4.7,3.67,2.99-.02,4.65-3.27,4.97-3.96,.28-.6,.9-2.14,.57-4.06-.12-.7-.36-2.17-1.57-3.24-1.28-1.13-2.88-1.15-3.72-1.15-4.27,.01-7.35,3.63-7.94,4.32-1.84,2.16-2.47,4.27-3.58,8.06-1.1,3.78-1.51,6.81-1.62,8.13-.7,7.78-.29,15.93-.06,19.49,.3,1.76,.61,3.22,.85,4.26,.19,.82,.73,3.1,1.71,5.97,.66,1.94,1.06,2.8,1.71,3.7,.51,.71,1.04,1.44,1.99,1.99,.33,.19,1.47,.8,4.55,.57,1.11-.08,2.62-.21,4.55-.85,7.25-2.43,15.07-9.67,15.07-9.67,2.91-2.7,5.07-5.4,9.38-10.8,2.91-3.65,5.29-6.94,5.97-10.8,.31-1.79,.29-3.87,.28-4.26-.03-2.55-.04-3.83-.85-5.12-.94-1.51-2.41-2.22-3.13-2.56-1.16-.56-2.14-.71-3.13-.85-.84-.13-2.48-.36-4.55,0-2.83,.49-4.75,1.78-5.26,2.13-2.48,1.74-3.63,3.89-4.26,5.12-.66,1.26-1.69,3.23-1.71,5.97,0,1.1-.03,4.2,2.13,6.68,1.62,1.86,3.64,2.48,5.12,2.84,5.8,1.44,11.82-.25,15.64-3.13,1.9-1.43,3.18-3.06,3.55-3.55,.91-1.2,1.88-2.47,2.42-4.41,.36-1.31,.39-2.41,.43-3.84,.03-1.17-.04-2.11-.14-3.55-.1-1.42-.26-2.64-.28-2.84,0,0,0,0,0,0-.11-.82-.34-2.63-.57-3.41-.77-2.65-4.07-2.73-7.39-5.12-2.67-1.92-3.86-4.31-6.25-9.1-1.2-2.41-2.56-5.18-3.13-9.1-.5-3.46-.11-5.89,0-6.54,.18-1.04,.53-2.94,1.71-5.12,.59-1.08,1.43-2.61,3.13-3.98,.4-.32,2.2-1.73,4.83-2.27,5.94-1.22,10.89,3.04,11.66,3.7,1.94,1.67,2.9,3.32,4.26,5.69,2.43,4.21,3.34,8,3.98,10.8,.73,3.19,.99,5.87,1.14,7.39,.18,1.96,.23,3.45,.28,5.12,.14,4.4,.02,7.78,0,8.24-.29,6.99-6.37,19.31-12.79,28.71,0,0-6.7,9.8-15.35,17.94-.19,.18-.38,.36-.57,.54-1.06,1.01-1.15,1.05-1.14,1.14,.11,.72,6.82,.28,6.82,.28,4.45-.29,6.68-.44,8.24-.85,2.96-.79,6.97-1.85,8.81-5.12,.55-.97,.08-.68,1.42-5.12,.98-3.24,1.06-2.87,1.99-5.97,.18-.6,.73-2.47,1.71-4.83,.8-1.95,1.18-2.49,1.71-2.56,.91-.12,1.87,1.33,2.27,2.27,.26,.61,.29,1.01,.43,1.85,0,0,.28,1.72,.85,3.7,.18,.63,.85,2.84,2.27,5.4,2.09,3.75,3.84,4.7,4.82,6.47,.03,.06,.17,.3,.44,.5,.72,.51,2,.39,2.56-.28,.32-.39,.3-.83,.28-1.71-.02-.81-.04-2.75,0-3.41,.08-1.31,.69-1.9,2.56-4.55,.98-1.4,1.89-2.84,2.84-4.26,2.54-3.8,3.71-7.38,4.55-9.95,.81-2.49,1.89-6.49,1.99-8.81,.01-.32,.04-1.29,.28-2.56,.15-.79,.28-1.13,.57-2.27,0,0,.28-1.12,.57-2.56,.82-4.06,0-8.24,0-8.24-.34-1.73-.88-4.38-2.84-7.11-1.06-1.48-2.56-3.57-5.4-4.55-2.85-.98-5.35-.27-6.25,0-3.13,.94-4.91,3.02-5.97,4.26-1.04,1.22-2.63,3.08-3.13,5.97-.53,3.07,.47,5.5,1.14,7.11,.53,1.29,1.66,4,4.26,5.97,3.02,2.27,6.37,2.3,9.67,2.27,7.14-.05,12.45-2.66,15.07-3.98,2.4-1.21,7.66-3.94,11.66-9.38,2.71-3.69,3.08-6.25,3.13-7.68,.06-1.98-.46-3.66-.57-3.98-.32-.98-.78-2.41-1.99-3.7-1.55-1.64-3.43-2.09-5.4-2.56-1.91-.45-3.34-.79-5.12-.28-2.39,.68-3.72,2.42-4.26,3.13-1.54,2.01-1.85,4.05-1.99,5.12-.19,1.39-.45,3.35,.57,5.4,1.09,2.18,2.98,3.19,3.98,3.7,2,1.02,3.82,1.07,7.39,1.14,4.07,.07,6.1,.11,8.24-.85,2.96-1.33,4.59-3.53,5.12-4.26,1.91-2.65,2.34-5.36,2.56-6.82,.18-1.21,.23-2.32,.28-4.55,.04-1.77,.08-3.66-.14-6.11-.22-2.43-.38-4.12-1.14-6.25-.18-.51-.25-.63-1.85-3.84-2.11-4.24-2.41-4.84-3.13-5.97-1.8-2.85-2.81-3.66-3.98-3.98-.29-.08-1.72-.47-2.84,.28-.45,.31-1.03,.91-1.42,3.13-.27,1.51-.34,3.11,0,6.25,.27,2.53,.41,3.8,.85,5.4,.7,2.5,1.65,4.26,2.27,5.4,.86,1.57,2.33,4.2,5.12,6.82,2.53,2.39,4.72,4.45,7.68,4.26,.34-.02,2.6-.2,4.26-1.99,1.36-1.46,1.57-3.18,1.71-4.26,.19-1.53-.25-3.32-1.14-6.82-.34-1.36-.73-2.73-1.42-4.55-.79-2.08-1.55-3.57-2.13-4.69-1.56-3.02-3.04-5.17-3.98-6.54-1.12-1.62-1.97-2.71-3.41-4.55-1.88-2.4-2.82-3.6-4.26-5.12-1.75-1.84-3.23-3.09-4.12-3.84-1.28-1.08-2.97-2.49-5.4-3.98-1.72-1.05-2.84-1.73-4.55-2.27-1.95-.62-3.86-1.23-5.4-.28-1.12,.69-1.49,1.85-1.99,3.41-.52,1.63-1.32,4.14,0,6.25,.92,1.47,2.43,2.02,3.13,2.27,2.87,1.04,5.45-.11,7.11-.85,1.42-.64,2.75-1.23,2.84-2.27,.11-1.15-1.32-2.17-2.27-2.56-1.38-.57-3.05-.36-4.26,.57-1.43,1.09-1.65,2.71-1.71,3.13-.02,.16-.33,2.82,1.71,4.55,.2,.17,1.87,1.55,3.7,1.14,1.06-.24,1.07-.84,3.13-1.99,1.23-.68,2.04-1.07,2.84-.85,.17,.05,.59,.16,.91,.56,.32,.39,.36,.84,.37,1.01"/>
</svg>