<svg width="3300" height="2200" viewBox="0 0 3300 2200" fill="none" xmlns="http://www.w3.org/2000/svg">
<g id="magnifyingglass 1" clip-path="url(#clip0_1_2)">
<g id="Notes">
<path id="artboard" d="M3300 0H0V2200H3300V0Z" fill="white"/>
<path id="Vector" d="M263 292H3036" stroke="black" stroke-width="0.5"/>
<text id="Weight/Scale Variations" fill="black" xml:space="preserve" style="white-space: pre" font-family="Inter" font-size="13" font-weight="bold" letter-spacing="0em"><tspan x="263" y="321.727">Weight/Scale Variations</tspan></text>
<text id="Ultralight" fill="black" xml:space="preserve" style="white-space: pre" font-family="Inter" font-size="13" letter-spacing="0em"><tspan x="531.211" y="321.727">Ultralight</tspan></text>
<text id="Thin" fill="black" xml:space="preserve" style="white-space: pre" font-family="Inter" font-size="13" letter-spacing="0em"><tspan x="842.922" y="321.727">Thin</tspan></text>
<text id="Light" fill="black" xml:space="preserve" style="white-space: pre" font-family="Inter" font-size="13" letter-spacing="0em"><tspan x="1137.63" y="321.727">Light</tspan></text>
<text id="Regular" fill="black" xml:space="preserve" style="white-space: pre" font-family="Inter" font-size="13" letter-spacing="0em"><tspan x="1426.34" y="321.727">Regular</tspan></text>
<text id="Medium" fill="black" xml:space="preserve" style="white-space: pre" font-family="Inter" font-size="13" letter-spacing="0em"><tspan x="1721.56" y="321.727">Medium</tspan></text>
<text id="Semibold" fill="black" xml:space="preserve" style="white-space: pre" font-family="Inter" font-size="13" letter-spacing="0em"><tspan x="2014.27" y="321.727">Semibold</tspan></text>
<text id="Bold" fill="black" xml:space="preserve" style="white-space: pre" font-family="Inter" font-size="13" letter-spacing="0em"><tspan x="2325.98" y="321.727">Bold</tspan></text>
<text id="Heavy" fill="black" xml:space="preserve" style="white-space: pre" font-family="Inter" font-size="13" letter-spacing="0em"><tspan x="2617.19" y="321.727">Heavy</tspan></text>
<text id="Black" fill="black" xml:space="preserve" style="white-space: pre" font-family="Inter" font-size="13" letter-spacing="0em"><tspan x="2916.4" y="321.727">Black</tspan></text>
<path id="Vector_2" d="M263 1903H3036" stroke="black" stroke-width="0.5"/>
<g id="Group">
<path id="Vector_3" d="M272.248 1933.83C276.555 1933.83 280.139 1930.26 280.139 1925.95C280.139 1921.64 276.545 1918.07 272.238 1918.07C267.941 1918.07 264.367 1921.64 264.367 1925.95C264.367 1930.26 267.951 1933.83 272.248 1933.83ZM272.248 1932.35C268.703 1932.35 265.871 1929.5 265.871 1925.95C265.871 1922.39 268.693 1919.55 272.238 1919.55C275.793 1919.55 278.645 1922.39 278.645 1925.95C278.645 1929.5 275.803 1932.35 272.248 1932.35ZM268.654 1925.95C268.654 1926.38 268.957 1926.67 269.406 1926.67H271.506V1928.79C271.506 1929.23 271.799 1929.53 272.229 1929.53C272.678 1929.53 272.971 1929.23 272.971 1928.79V1926.67H275.09C275.529 1926.67 275.832 1926.38 275.832 1925.95C275.832 1925.51 275.529 1925.21 275.09 1925.21H272.971V1923.1C272.971 1922.65 272.678 1922.35 272.229 1922.35C271.799 1922.35 271.506 1922.65 271.506 1923.1V1925.21H269.406C268.957 1925.21 268.654 1925.51 268.654 1925.95Z" fill="black"/>
</g>
<g id="Group_2">
<path id="Vector_4" d="M293.215 1935.91C298.664 1935.91 303.176 1931.39 303.176 1925.95C303.176 1920.5 298.654 1915.99 293.205 1915.99C287.766 1915.99 283.254 1920.5 283.254 1925.95C283.254 1931.39 287.776 1935.91 293.215 1935.91ZM293.215 1934.25C288.606 1934.25 284.924 1930.56 284.924 1925.95C284.924 1921.34 288.596 1917.65 293.205 1917.65C297.815 1917.65 301.516 1921.34 301.516 1925.95C301.516 1930.56 297.824 1934.25 293.215 1934.25ZM288.684 1925.95C288.684 1926.43 289.016 1926.75 289.514 1926.75H292.385V1929.63C292.385 1930.12 292.717 1930.46 293.195 1930.46C293.684 1930.46 294.026 1930.13 294.026 1929.63V1926.75H296.906C297.395 1926.75 297.736 1926.43 297.736 1925.95C297.736 1925.46 297.395 1925.12 296.906 1925.12H294.026V1922.25C294.026 1921.75 293.684 1921.41 293.195 1921.41C292.717 1921.41 292.385 1921.75 292.385 1922.25V1925.12H289.514C289.016 1925.12 288.684 1925.46 288.684 1925.95Z" fill="black"/>
</g>
<g id="Group_3">
<path id="Vector_5" d="M319.895 1938.66C326.858 1938.66 332.619 1932.9 332.619 1925.95C332.619 1918.99 326.848 1913.22 319.885 1913.22C312.932 1913.22 307.18 1918.99 307.18 1925.95C307.18 1932.9 312.942 1938.66 319.895 1938.66ZM319.895 1936.85C313.86 1936.85 309.006 1931.98 309.006 1925.95C309.006 1919.9 313.85 1915.05 319.885 1915.05C325.93 1915.05 330.793 1919.9 330.793 1925.95C330.793 1931.98 325.94 1936.85 319.895 1936.85ZM314.123 1925.95C314.123 1926.47 314.494 1926.83 315.041 1926.83H318.986V1930.78C318.986 1931.32 319.358 1931.7 319.875 1931.7C320.412 1931.7 320.783 1931.33 320.783 1930.78V1926.83H324.738C325.276 1926.83 325.656 1926.47 325.656 1925.95C325.656 1925.4 325.285 1925.03 324.738 1925.03H320.783V1921.09C320.783 1920.54 320.412 1920.16 319.875 1920.16C319.358 1920.16 318.986 1920.54 318.986 1921.09V1925.03H315.041C314.494 1925.03 314.123 1925.4 314.123 1925.95Z" fill="black"/>
</g>
<text id="Design Variations" fill="black" xml:space="preserve" style="white-space: pre" font-family="Inter" font-size="13" font-weight="bold" letter-spacing="0em"><tspan x="263" y="1952.73">Design Variations</tspan></text>
<text id="Symbols are supported in up to nine weights and three scales." fill="black" xml:space="preserve" style="white-space: pre" font-family="Inter" font-size="13" letter-spacing="0em"><tspan x="263" y="1970.73">Symbols are supported in up to nine weights and three scales.</tspan></text>
<text id="For optimal layout with text and other symbols, vertically align" fill="black" xml:space="preserve" style="white-space: pre" font-family="Inter" font-size="13" letter-spacing="0em"><tspan x="263" y="1988.73">For optimal layout with text and other symbols, vertically align</tspan></text>
<text id="symbols with the adjacent text." fill="black" xml:space="preserve" style="white-space: pre" font-family="Inter" font-size="13" letter-spacing="0em"><tspan x="263" y="2006.73">symbols with the adjacent text.</tspan></text>
<path id="Vector_6" d="M776 1919V1933" stroke="#00AEEF" stroke-width="0.5"/>
<g id="Group_4">
<path id="Vector_7" d="M779.311 1933.16C779.828 1933.16 780.082 1932.96 780.268 1932.41L781.527 1928.97H787.289L788.549 1932.41C788.734 1932.96 788.988 1933.16 789.496 1933.16C790.014 1933.16 790.346 1932.84 790.346 1932.36C790.346 1932.19 790.316 1932.03 790.238 1931.83L785.658 1919.63C785.434 1919.04 785.033 1918.73 784.408 1918.73C783.803 1918.73 783.393 1919.03 783.178 1919.62L778.598 1931.84C778.52 1932.04 778.49 1932.2 778.49 1932.37C778.49 1932.85 778.803 1933.16 779.311 1933.16ZM782.006 1927.48L784.379 1920.91H784.428L786.801 1927.48H782.006Z" fill="black"/>
</g>
<path id="Vector_8" d="M792.836 1919V1933" stroke="#00AEEF" stroke-width="0.5"/>
<text id="Margins" fill="black" xml:space="preserve" style="white-space: pre" font-family="Inter" font-size="13" font-weight="bold" letter-spacing="0em"><tspan x="776" y="1952.73">Margins</tspan></text>
<text id="Leading and trailing margins on the left and right side of each symbol" fill="black" xml:space="preserve" style="white-space: pre" font-family="Inter" font-size="13" letter-spacing="0em"><tspan x="776" y="1970.73">Leading and trailing margins on the left and right side of each symbol</tspan></text>
<text id="can be adjusted by modifying the x-location of the margin guidelines." fill="black" xml:space="preserve" style="white-space: pre" font-family="Inter" font-size="13" letter-spacing="0em"><tspan x="776" y="1988.73">can be adjusted by modifying the x-location of the margin guidelines.</tspan></text>
<text id="Modifications are automatically applied proportionally to all" fill="black" xml:space="preserve" style="white-space: pre" font-family="Inter" font-size="13" letter-spacing="0em"><tspan x="776" y="2006.73">Modifications are automatically applied proportionally to all</tspan></text>
<text id="scales and weights." fill="black" xml:space="preserve" style="white-space: pre" font-family="Inter" font-size="13" letter-spacing="0em"><tspan x="776" y="2024.73">scales and weights.</tspan></text>
<g id="Group_5">
<path id="Vector_9" d="M1291.84 1934.87L1293.54 1936.57C1294.4 1937.44 1295.39 1937.38 1296.31 1936.36L1307.01 1924.57L1306.04 1923.6L1295.43 1935.28C1295.07 1935.68 1294.74 1935.77 1294.27 1935.3L1293.1 1934.14C1292.63 1933.68 1292.74 1933.34 1293.14 1932.98L1304.62 1922.18L1303.64 1921.21L1292.05 1932.1C1291.06 1933.02 1290.98 1934 1291.84 1934.87ZM1298.26 1916.67C1297.84 1917.08 1297.81 1917.66 1298.04 1918.05C1298.28 1918.41 1298.74 1918.64 1299.38 1918.48C1300.85 1918.14 1302.37 1918.08 1303.79 1919.02L1303.21 1920.47C1302.87 1921.3 1303.04 1921.89 1303.58 1922.43L1305.88 1924.75C1306.36 1925.24 1306.77 1925.26 1307.34 1925.16L1308.4 1924.96L1309.07 1925.64L1309.03 1926.19C1308.99 1926.69 1309.12 1927.07 1309.61 1927.55L1310.37 1928.29C1310.85 1928.77 1311.46 1928.8 1311.93 1928.33L1314.84 1925.41C1315.31 1924.94 1315.29 1924.35 1314.81 1923.87L1314.04 1923.11C1313.56 1922.63 1313.19 1922.47 1312.71 1922.51L1312.13 1922.56L1311.49 1921.93L1311.73 1920.8C1311.86 1920.24 1311.71 1919.8 1311.12 1919.21L1308.92 1917.02C1305.58 1913.7 1301.15 1913.78 1298.26 1916.67ZM1299.75 1917.04C1302.18 1915.27 1305.47 1915.57 1307.7 1917.79L1310.13 1920.21C1310.37 1920.44 1310.41 1920.63 1310.34 1920.97L1310.02 1922.45L1311.52 1923.94L1312.51 1923.88C1312.76 1923.87 1312.84 1923.89 1313.03 1924.08L1313.61 1924.66L1311.17 1927.1L1310.59 1926.53C1310.4 1926.33 1310.37 1926.25 1310.38 1925.99L1310.45 1925.01L1308.95 1923.53L1307.43 1923.78C1307.11 1923.85 1306.96 1923.82 1306.71 1923.59L1304.71 1921.58C1304.46 1921.35 1304.43 1921.18 1304.59 1920.81L1305.46 1918.72C1303.9 1917.27 1301.87 1916.64 1299.84 1917.24C1299.68 1917.28 1299.63 1917.15 1299.75 1917.04Z" fill="black"/>
</g>
<text id="Exporting" fill="black" xml:space="preserve" style="white-space: pre" font-family="Inter" font-size="13" font-weight="bold" letter-spacing="0em"><tspan x="1289" y="1952.73">Exporting</tspan></text>
<text id="Symbols should be outlined when exporting to ensure the" fill="black" xml:space="preserve" style="white-space: pre" font-family="Inter" font-size="13" letter-spacing="0em"><tspan x="1289" y="1970.73">Symbols should be outlined when exporting to ensure the</tspan></text>
<text id="design is preserved when submitting to Xcode." fill="black" xml:space="preserve" style="white-space: pre" font-family="Inter" font-size="13" letter-spacing="0em"><tspan x="1289" y="1988.73">design is preserved when submitting to Xcode.</tspan></text>
<text id="template-version" fill="black" xml:space="preserve" style="white-space: pre" font-family="Inter" font-size="13" letter-spacing="0em"><tspan x="2946" y="1932.73">Template v.5.0</tspan></text>
<text id="Requires Xcode 15 or greater" fill="black" xml:space="preserve" style="white-space: pre" font-family="Inter" font-size="13" letter-spacing="0em"><tspan x="2858" y="1950.73">Requires Xcode 15 or greater</tspan></text>
<text id="descriptive-name" fill="black" xml:space="preserve" style="white-space: pre" font-family="Inter" font-size="13" letter-spacing="0em"><tspan x="2835" y="1968.73">Generated from magnifyingglass</tspan></text>
<text id="Typeset at 100.0 points" fill="black" xml:space="preserve" style="white-space: pre" font-family="Inter" font-size="13" letter-spacing="0em"><tspan x="2892" y="1986.73">Typeset at 100.0 points</tspan></text>
<text id="Small" fill="black" xml:space="preserve" style="white-space: pre" font-family="Inter" font-size="13" letter-spacing="0em"><tspan x="263" y="725.727">Small</tspan></text>
<text id="Medium_2" fill="black" xml:space="preserve" style="white-space: pre" font-family="Inter" font-size="13" letter-spacing="0em"><tspan x="263" y="1155.73">Medium</tspan></text>
<text id="Large" fill="black" xml:space="preserve" style="white-space: pre" font-family="Inter" font-size="13" letter-spacing="0em"><tspan x="263" y="1585.73">Large</tspan></text>
</g>
<g id="Guides">
<g id="H-reference">
<path id="Vector_10" d="M339.994 696H342.638L368.328 628.868H369.03V625.541H367.123L339.994 696ZM350.688 671.52H385.981L385.231 669.272H351.438L350.688 671.52ZM394.12 696H396.764L369.638 625.541H368.433V628.868L394.12 696Z" fill="#27AAE1"/>
</g>
<path id="Baseline-S" d="M263 696H3036" stroke="#27AAE1" stroke-width="0.5"/>
<path id="Capline-S" d="M263 625.541H3036" stroke="#27AAE1" stroke-width="0.5"/>
<g id="H-reference_2">
<path id="Vector_11" d="M339.994 1126H342.638L368.328 1058.87H369.03V1055.54H367.123L339.994 1126ZM350.688 1101.52H385.981L385.231 1099.27H351.438L350.688 1101.52ZM394.12 1126H396.764L369.638 1055.54H368.433V1058.87L394.12 1126Z" fill="#27AAE1"/>
</g>
<path id="Baseline-M" d="M263 1126H3036" stroke="#27AAE1" stroke-width="0.5"/>
<path id="Capline-M" d="M263 1055.54H3036" stroke="#27AAE1" stroke-width="0.5"/>
<g id="H-reference_3">
<path id="Vector_12" d="M339.994 1556H342.638L368.328 1488.87H369.03V1485.54H367.123L339.994 1556ZM350.688 1531.52H385.981L385.231 1529.27H351.438L350.688 1531.52ZM394.12 1556H396.764L369.638 1485.54H368.433V1488.87L394.12 1556Z" fill="#27AAE1"/>
</g>
<path id="Baseline-L" d="M263 1556H3036" stroke="#27AAE1" stroke-width="0.5"/>
<path id="Capline-L" d="M263 1485.54H3036" stroke="#27AAE1" stroke-width="0.5"/>
<path id="left-margin-Ultralight-S" d="M514.975 600.785V720.121" stroke="#00AEEF" stroke-width="0.5"/>
<path id="right-margin-Ultralight-S" d="M604.447 600.785V720.121" stroke="#00AEEF" stroke-width="0.5"/>
<path id="left-margin-Regular-S" d="M1403.36 600.785V720.121" stroke="#00AEEF" stroke-width="0.5"/>
<path id="right-margin-Regular-S" d="M1496.33 600.785V720.121" stroke="#00AEEF" stroke-width="0.5"/>
<path id="left-margin-Black-S" d="M2884.91 600.785V720.121" stroke="#00AEEF" stroke-width="0.5"/>
<path id="right-margin-Black-S" d="M2981.89 600.785V720.121" stroke="#00AEEF" stroke-width="0.5"/>
</g>
<g id="Symbols">
<g id="Black-S">
<path id="Vector_13" d="M2921 654.068C2921 668.48 2932.74 680.137 2947.26 680.137C2951.12 680.137 2954.76 679.317 2958.07 677.865L2966.77 686.505C2968.46 688.181 2970.78 689 2973.15 689C2978.17 689 2982 685.164 2982 680.211C2982 677.94 2981.21 675.705 2979.45 673.955L2970.9 665.464C2972.58 662.038 2973.52 658.165 2973.52 654.068C2973.52 639.656 2961.78 628 2947.26 628C2932.74 628 2921 639.656 2921 654.068ZM2933.27 654.068C2933.27 646.397 2939.53 640.178 2947.26 640.178C2954.99 640.178 2961.25 646.397 2961.25 654.068C2961.25 661.74 2954.99 667.959 2947.26 667.959C2939.53 667.959 2933.27 661.74 2933.27 654.068Z" stroke="black" stroke-width="0.5"/>
<path id="Rectangle 1 (Stroke)" fill-rule="evenodd" clip-rule="evenodd" d="M2913 633.25H2890C2888.62 633.25 2887.5 633.81 2887.5 634.5V636.5C2887.5 637.19 2888.62 637.75 2890 637.75H2913C2914.38 637.75 2915.5 637.19 2915.5 636.5V634.5C2915.5 633.81 2914.38 633.25 2913 633.25ZM2890 633C2888.34 633 2887 633.672 2887 634.5V636.5C2887 637.328 2888.34 638 2890 638H2913C2914.66 638 2916 637.328 2916 636.5V634.5C2916 633.672 2914.66 633 2913 633H2890Z" stroke="black" stroke-width="0.5"/>
<path id="Rectangle 2 (Stroke)" fill-rule="evenodd" clip-rule="evenodd" d="M2913 673.25H2890C2888.62 673.25 2887.5 673.81 2887.5 674.5V676.5C2887.5 677.19 2888.62 677.75 2890 677.75H2913C2914.38 677.75 2915.5 677.19 2915.5 676.5V674.5C2915.5 673.81 2914.38 673.25 2913 673.25ZM2890 673C2888.34 673 2887 673.672 2887 674.5V676.5C2887 677.328 2888.34 678 2890 678H2913C2914.66 678 2916 677.328 2916 676.5V674.5C2916 673.672 2914.66 673 2913 673H2890Z" stroke="black" stroke-width="0.5"/>
<path id="Rectangle 3 (Stroke)" fill-rule="evenodd" clip-rule="evenodd" d="M2906 653.25H2890C2888.62 653.25 2887.5 653.81 2887.5 654.5V656.5C2887.5 657.19 2888.62 657.75 2890 657.75H2906C2907.38 657.75 2908.5 657.19 2908.5 656.5V654.5C2908.5 653.81 2907.38 653.25 2906 653.25ZM2890 653C2888.34 653 2887 653.672 2887 654.5V656.5C2887 657.328 2888.34 658 2890 658H2906C2907.66 658 2909 657.328 2909 656.5V654.5C2909 653.672 2907.66 653 2906 653H2890Z" stroke="black" stroke-width="0.5"/>
</g>
<g id="Regular-S">
<path id="Vector_14" d="M1433 653.109C1433 667.518 1444.63 679.177 1458.95 679.177C1464.46 679.177 1469.52 677.453 1473.72 674.497L1488.9 689.81C1489.76 690.631 1490.82 691 1491.92 691C1494.29 691 1496 689.194 1496 686.813C1496 685.663 1495.55 684.637 1494.86 683.857L1479.76 668.627C1482.98 664.275 1484.86 658.938 1484.86 653.109C1484.86 638.7 1473.27 627 1458.95 627C1444.63 627 1433 638.7 1433 653.109ZM1439.28 653.109C1439.28 642.148 1448.06 633.322 1458.95 633.322C1469.8 633.322 1478.62 642.148 1478.62 653.109C1478.62 664.029 1469.8 672.896 1458.95 672.896C1448.06 672.896 1439.28 664.029 1439.28 653.109Z" stroke="black" stroke-width="0.5"/>
<path id="Rectangle 1 (Stroke)_2" fill-rule="evenodd" clip-rule="evenodd" d="M1431 628.25H1408C1406.62 628.25 1405.5 628.81 1405.5 629.5V631.5C1405.5 632.19 1406.62 632.75 1408 632.75H1431C1432.38 632.75 1433.5 632.19 1433.5 631.5V629.5C1433.5 628.81 1432.38 628.25 1431 628.25ZM1408 628C1406.34 628 1405 628.672 1405 629.5V631.5C1405 632.328 1406.34 633 1408 633H1431C1432.66 633 1434 632.328 1434 631.5V629.5C1434 628.672 1432.66 628 1431 628H1408Z" stroke="black" stroke-width="0.5"/>
<path id="Rectangle 2 (Stroke)_2" fill-rule="evenodd" clip-rule="evenodd" d="M1431 673.25H1408C1406.62 673.25 1405.5 673.81 1405.5 674.5V676.5C1405.5 677.19 1406.62 677.75 1408 677.75H1431C1432.38 677.75 1433.5 677.19 1433.5 676.5V674.5C1433.5 673.81 1432.38 673.25 1431 673.25ZM1408 673C1406.34 673 1405 673.672 1405 674.5V676.5C1405 677.328 1406.34 678 1408 678H1431C1432.66 678 1434 677.328 1434 676.5V674.5C1434 673.672 1432.66 673 1431 673H1408Z" stroke="black" stroke-width="0.5"/>
<path id="Rectangle 3 (Stroke)_2" fill-rule="evenodd" clip-rule="evenodd" d="M1424 651.25H1408C1406.62 651.25 1405.5 651.81 1405.5 652.5V654.5C1405.5 655.19 1406.62 655.75 1408 655.75H1424C1425.38 655.75 1426.5 655.19 1426.5 654.5V652.5C1426.5 651.81 1425.38 651.25 1424 651.25ZM1408 651C1406.34 651 1405 651.672 1405 652.5V654.5C1405 655.328 1406.34 656 1408 656H1424C1425.66 656 1427 655.328 1427 654.5V652.5C1427 651.672 1425.66 651 1424 651H1408Z" stroke="black" stroke-width="0.5"/>
</g>
<g id="Ultralight-S">
<path id="Vector_15" d="M543 653.099C543 666.39 553.767 677.233 566.96 677.233C572.746 677.233 578.037 675.17 582.189 671.699L600.721 690.411C601.013 690.741 601.513 691 602.053 691C603.3 691 604 690.056 604 688.994C604 688.524 603.814 688.063 603.456 687.658L584.93 668.991C588.626 664.761 590.879 659.181 590.879 653.099C590.879 639.847 580.115 629 566.96 629C553.767 629 543 639.847 543 653.099ZM544.872 653.099C544.872 640.907 554.82 630.886 566.96 630.886C579.059 630.886 589.01 640.907 589.01 653.099C589.01 665.326 579.059 675.35 566.96 675.35C554.82 675.35 544.872 665.326 544.872 653.099Z" stroke="black" stroke-width="0.5"/>
<path id="Rectangle 1 (Stroke)_3" fill-rule="evenodd" clip-rule="evenodd" d="M542 626.25H519C517.619 626.25 516.5 626.81 516.5 627.5V629.5C516.5 630.19 517.619 630.75 519 630.75H542C543.381 630.75 544.5 630.19 544.5 629.5V627.5C544.5 626.81 543.381 626.25 542 626.25ZM519 626C517.343 626 516 626.672 516 627.5V629.5C516 630.328 517.343 631 519 631H542C543.657 631 545 630.328 545 629.5V627.5C545 626.672 543.657 626 542 626H519Z" stroke="black" stroke-width="0.5"/>
<path id="Rectangle 2 (Stroke)_3" fill-rule="evenodd" clip-rule="evenodd" d="M542 671.25H519C517.619 671.25 516.5 671.81 516.5 672.5V674.5C516.5 675.19 517.619 675.75 519 675.75H542C543.381 675.75 544.5 675.19 544.5 674.5V672.5C544.5 671.81 543.381 671.25 542 671.25ZM519 671C517.343 671 516 671.672 516 672.5V674.5C516 675.328 517.343 676 519 676H542C543.657 676 545 675.328 545 674.5V672.5C545 671.672 543.657 671 542 671H519Z" stroke="black" stroke-width="0.5"/>
<path id="Rectangle 3 (Stroke)_3" fill-rule="evenodd" clip-rule="evenodd" d="M535 649.25H519C517.619 649.25 516.5 649.81 516.5 650.5V652.5C516.5 653.19 517.619 653.75 519 653.75H535C536.381 653.75 537.5 653.19 537.5 652.5V650.5C537.5 649.81 536.381 649.25 535 649.25ZM519 649C517.343 649 516 649.672 516 650.5V652.5C516 653.328 517.343 654 519 654H535C536.657 654 538 653.328 538 652.5V650.5C538 649.672 536.657 649 535 649H519Z" stroke="black" stroke-width="0.5"/>
</g>
</g>
</g>
<defs>
<clipPath id="clip0_1_2">
<rect width="3300" height="2200" fill="white"/>
</clipPath>
</defs>
</svg>
